PathFileType	4	(X/Y/Z)	/Users/itak/Documents/Research/Walk-IL/dataset/trc/00387_00012.trc
DataRate	CameraRate	NumFrames	NumMarkers	Units	OrigDataRate	OrigDataStartFrame	OrigNumFrames
100.000000	100.000000	4	56	mm	100.000000	518	593
Frame#	Time	RPSI			LPSI			L3			STRN			T10			C7			CLAV			RBAK			LBAK			LSHO			LUPA			LAEL			LAOL			LWTS			LWPS			LFRA			LIFD			LHPS			LHTS			RSHO			RUPA			RAEL			RAOL			RWTS			RWPS			RFRA			RIFD			RHTS			RHPS			RBHD			LFHD			RFHD			LBHD			RASI			LKNE			LTHI			LANK			LTIP			LTOE			LMT1			LMT5			LHEE			RKNE			RANK			RTIP			RTOE			RMT1			RMT5			RHEE			LASI			LHIP			RHIP			RTHI			*53			*54			*55			
		X1	Y1	Z1	X2	Y2	Z2	X3	Y3	Z3	X4	Y4	Z4	X5	Y5	Z5	X6	Y6	Z6	X7	Y7	Z7	X8	Y8	Z8	X9	Y9	Z9	X10	Y10	Z10	X11	Y11	Z11	X12	Y12	Z12	X13	Y13	Z13	X14	Y14	Z14	X15	Y15	Z15	X16	Y16	Z16	X17	Y17	Z17	X18	Y18	Z18	X19	Y19	Z19	X20	Y20	Z20	X21	Y21	Z21	X22	Y22	Z22	X23	Y23	Z23	X24	Y24	Z24	X25	Y25	Z25	X26	Y26	Z26	X27	Y27	Z27	X28	Y28	Z28	X29	Y29	Z29	X30	Y30	Z30	X31	Y31	Z31	X32	Y32	Z32	X33	Y33	Z33	X34	Y34	Z34	X35	Y35	Z35	X36	Y36	Z36	X37	Y37	Z37	X38	Y38	Z38	X39	Y39	Z39	X40	Y40	Z40	X41	Y41	Z41	X42	Y42	Z42	X43	Y43	Z43	X44	Y44	Z44	X45	Y45	Z45	X46	Y46	Z46	X47	Y47	Z47	X48	Y48	Z48	X49	Y49	Z49	X50	Y50	Z50	X51	Y51	Z51	X52	Y52	Z52	X53	Y53	Z53	X54	Y54	Z54	X55	Y55	Z55	X56	Y56	Z56	

519	5.18	-1464.373168945312	996.5637817382812	-8.513378143310547	-1469.864013671875	989.3395385742188	-140.0198516845703	-1460.30078125	1068.05712890625	-72.55181884765625	-1213.7802734375	1217.11279296875	-68.84215545654297	-1466.555053710938	1174.277221679688	-75.39125823974609	-1414.547973632812	1420.402709960938	-79.68605041503906	-1262.432983398438	1337.919677734375	-70.05902099609375	-1463.666870117188	1275.307739257812	-14.48734569549561	-1427.608154296875	1385.457397460938	-183.9608917236328	-1338.942138671875	1398.915893554688	-232.8592681884766	-1365.264038085938	1282.752563476562	-303.6922607421875	-1348.807006835938	1086.892944335938	-328.3184814453125	-1401.797973632812	1065.204956054688	-266.1366577148438	-1262.075561523438	869.0484619140625	-288.5989379882812	-1313.236938476562	857.52490234375	-347.6741638183594	-1333.04833984375	981.544677734375	-336.519775390625	-1252.567016601562	688.4519653320312	-290.9450988769531	-1298.40869140625	772.5309448242188	-341.5373840332031	-1242.818359375	773.82666015625	-310.36865234375	-1364.7783203125	1397.758422851562	79.5587158203125	-1384.356079101562	1333.539428710938	136.9293823242188	-1397.652709960938	1073.700805664062	179.2991638183594	-1410.864868164062	1061.953979492188	84.08329772949219	-1263.990844726562	866.66455078125	169.9452972412109	-1313.913208007812	850.31298828125	225.1110076904297	-1374.779296875	1008.824279785156	199.3577575683594	-1256.48876953125	690.3094482421875	174.6975250244141	-1244.152954101562	760.1607055664062	193.1828155517578	-1304.615844726562	759.9890747070312	224.3088073730469	-1400.735595703125	1590.590209960938	14.68206214904785	-1244.267333984375	1625.782836914062	-104.5075225830078	-1269.47412109375	1618.049682617188	15.51135635375977	-1383.388793945312	1596.465698242188	-146.8709411621094	-1250.515014648438	973.12841796875	48.11316680908203	-1352.689086914062	481.7123718261719	-246.3037261962891	-1359.303100585938	624.4799194335938	-255.1889953613281	-1444.072021484375	43.51714324951172	-214.610595703125	-1402.952026367188	250.4810943603516	-242.8833160400391	-1233.988159179688	49.03101348876953	-142.5953521728516	-1315.293701171875	46.94670867919922	-115.5449295043945	-1314.187255859375	43.72518539428711	-219.9222412109375	-1484.373901367188	39.98788833618164	-158.3466796875	-1345.942504882812	478.92724609375	79.50096130371094	-1393.036010742188	57.56281280517578	42.36788940429688	-1336.794799804688	352.1099243164062	62.67055511474609	-1220.343017578125	42.43525695800781	-35.5705451965332	-1296.14794921875	44.30380630493164	-55.44585418701172	-1305.573608398438	54.56042098999023	41.71725082397461	-1469.677856445312	41.16690826416016	-8.179661750793457	-1272.188842773438	969.2115478515625	-212.8473663330078	-1386.538452148438	975.7413940429688	-256.1944580078125	-1380.73095703125	969.4705810546875	105.512451171875	-1308.1533203125	740.2015991210938	104.5593795776367	nan	nan	nan	nan	nan	nan	nan	nan	nan	
520	5.19	-1464.82861328125	996.7236328125	-8.493484497070312	-1470.413330078125	989.4457397460938	-139.9388885498047	-1460.683227539062	1068.151733398438	-72.54054260253906	-1214.052001953125	1217.164306640625	-69.28144836425781	-1467.034790039062	1174.38330078125	-75.32910919189453	-1414.82568359375	1420.45263671875	-80.03438568115234	-1262.607421875	1337.98828125	-70.46707153320312	-1463.918579101562	1275.321899414062	-14.84277439117432	-1427.886474609375	1385.5693359375	-184.2727203369141	-1339.268798828125	1399.034301757812	-233.23291015625	-1365.856811523438	1282.819702148438	-304.0176086425781	-1349.578491210938	1086.96337890625	-328.4836120605469	-1402.53857421875	1065.3466796875	-266.2362060546875	-1262.287231445312	869.4406127929688	-288.6323852539062	-1313.350219726562	857.6705932617188	-347.6767883300781	-1333.591796875	981.6026611328125	-336.6215209960938	-1253.6455078125	689.145751953125	-291.3530883789062	-1298.199340820312	772.7362670898438	-341.4488525390625	-1242.686645507812	774.2557983398438	-310.3298950195312	-1364.948608398438	1397.816040039062	79.18023681640625	-1384.567138671875	1333.608642578125	136.5604400634766	-1397.84619140625	1073.834350585938	179.0137481689453	-1410.982177734375	1062.020141601562	83.84624481201172	-1264.59130859375	866.3582763671875	169.8766326904297	-1314.550537109375	850.226806640625	225.0004119873047	-1374.965454101562	1008.91845703125	199.1694793701172	-1258.040649414062	689.966796875	174.5428619384766	-1245.27294921875	759.7891845703125	193.0263519287109	-1305.53564453125	759.8213500976562	224.0302734375	-1401.046752929688	1591.019287109375	14.06089305877686	-1244.095458984375	1625.598754882812	-104.8597640991211	-1269.662475585938	1618.1181640625	15.10411357879639	-1383.279541015625	1596.610717773438	-147.5078582763672	-1250.896118164062	973.2335815429688	48.00302886962891	-1352.813354492188	481.7348327636719	-246.1932067871094	-1359.68603515625	624.5050048828125	-255.1144866943359	-1444.028076171875	43.50063323974609	-214.5546875	-1402.98291015625	250.4832000732422	-242.8060455322266	-1233.955322265625	49.00767135620117	-142.5554046630859	-1315.2529296875	46.93703842163086	-115.4970016479492	-1314.193115234375	43.74555587768555	-219.9000854492188	-1484.349243164062	39.97550964355469	-158.3182983398438	-1346.484619140625	479.0706176757812	79.63690185546875	-1393.031616210938	57.50627517700195	42.48484420776367	-1337.212280273438	352.1308288574219	62.86641693115234	-1220.3408203125	42.47312545776367	-35.50778198242188	-1296.203247070312	44.36861419677734	-55.40793609619141	-1305.580078125	54.54631805419922	41.78983688354492	-1469.706298828125	41.10819625854492	-8.135268211364746	-1272.962280273438	969.267578125	-212.9167785644531	-1387.29736328125	975.8021850585938	-256.2834167480469	-1381.100219726562	969.6197509765625	105.4635314941406	-1308.6474609375	740.2643432617188	104.5723571777344	nan	nan	nan	nan	nan	nan	nan	nan	nan	
521	5.2	-1465.269897460938	996.853271484375	-8.476166725158691	-1470.93310546875	989.5111083984375	-139.8596649169922	-1461.0654296875	1068.243896484375	-72.52947235107422	-1214.29248046875	1217.204223632812	-69.68867492675781	-1467.416625976562	1174.471557617188	-75.26032257080078	-1415.082763671875	1420.494506835938	-80.37868499755859	-1262.772583007812	1338.038208007812	-70.82627105712891	-1464.12744140625	1275.320922851562	-15.19963073730469	-1428.11181640625	1385.672485351562	-184.5770874023438	-1339.514282226562	1399.149658203125	-233.5754547119141	-1366.355224609375	1282.872192382812	-304.3220520019531	-1350.258056640625	1087.037963867188	-328.6146850585938	-1403.212646484375	1065.490966796875	-266.3171691894531	-1262.414184570312	869.810791015625	-288.6267700195312	-1313.37060546875	857.81494140625	-347.6438598632812	-1334.083129882812	981.654296875	-336.7025146484375	-1254.484375	689.8233032226562	-291.6619262695312	-1297.864379882812	772.9382934570312	-341.3035278320312	-1242.453125	774.693359375	-310.2266235351562	-1365.142333984375	1397.846435546875	78.81533813476562	-1384.778442382812	1333.627075195312	136.2132415771484	-1398.04345703125	1073.925048828125	178.7152099609375	-1411.087890625	1062.053100585938	83.61450958251953	-1265.213989257812	865.9307250976562	169.8243560791016	-1315.206298828125	850.1316528320312	224.8907165527344	-1375.145874023438	1008.961730957031	198.9582366943359	-1259.6083984375	689.5873413085938	174.5163269042969	-1246.348754882812	759.3850708007812	192.9538116455078	-1306.47314453125	759.6674194335938	223.8612213134766	-1401.324951171875	1591.4404296875	13.45754337310791	-1243.86181640625	1625.4013671875	-105.17724609375	-1269.829467773438	1618.178466796875	14.72933387756348	-1383.1572265625	1596.741943359375	-148.1172485351562	-1251.271484375	973.3399658203125	47.90437698364258	-1352.975952148438	481.7598876953125	-246.0711059570312	-1360.0458984375	624.5178833007812	-255.0025177001953	-1443.984252929688	43.47547149658203	-214.4907531738281	-1403.042602539062	250.4822845458984	-242.7144775390625	-1233.927490234375	48.98600387573242	-142.5094299316406	-1315.21240234375	46.92421722412109	-115.4343795776367	-1314.203125	43.77356719970703	-219.8743438720703	-1484.3232421875	39.95348358154297	-158.2796630859375	-1347.036865234375	479.2100524902344	79.79547882080078	-1393.028930664062	57.45334243774414	42.58642196655273	-1337.61669921875	352.16943359375	63.04820251464844	-1220.299072265625	42.50955581665039	-35.43448638916016	-1296.262084960938	44.43068695068359	-55.36461639404297	-1305.574462890625	54.53463363647461	41.85990905761719	-1469.732421875	41.0517463684082	-8.094141960144043	-1273.657836914062	969.2918701171875	-212.9523620605469	-1388.025024414062	975.843994140625	-256.3601684570312	-1381.477172851562	969.7709350585938	105.4192047119141	-1309.130004882812	740.3377685546875	104.6083984375	nan	nan	nan	nan	nan	nan	nan	nan	nan	
522	5.21	-1465.686889648438	996.9521484375	-8.451069831848145	-1471.43310546875	989.5431518554688	-139.7818298339844	-1461.476318359375	1068.339599609375	-72.52280426025391	-1214.50634765625	1217.22998046875	-70.06640625	-1467.6962890625	1174.541625976562	-75.19045257568359	-1415.321899414062	1420.530883789062	-80.72344970703125	-1262.939453125	1338.06640625	-71.13977813720703	-1464.297485351562	1275.310424804688	-15.56054592132568	-1428.2919921875	1385.767700195312	-184.8807525634766	-1339.679077148438	1399.257202148438	-233.8900909423828	-1366.754516601562	1282.90771484375	-304.6006469726562	-1350.841552734375	1087.11279296875	-328.7201843261719	-1403.814575195312	1065.630859375	-266.3839416503906	-1262.44677734375	870.1658325195312	-288.5798645019531	-1313.305541992188	857.9505615234375	-347.5759582519531	-1334.518310546875	981.6958618164062	-336.7624816894531	-1254.923461914062	690.443115234375	-291.8330993652344	-1297.412963867188	773.1339721679688	-341.108642578125	-1242.125366210938	775.1336669921875	-310.0757446289062	-1365.361206054688	1397.850708007812	78.46168518066406	-1384.988159179688	1333.5966796875	135.8889007568359	-1398.234741210938	1073.968627929688	178.4022979736328	-1411.19140625	1062.0537109375	83.38145446777344	-1265.87353515625	865.3743896484375	169.7832794189453	-1315.863647460938	850.0231323242188	224.7802276611328	-1375.332641601562	1008.959594726562	198.7194671630859	-1261.151245117188	689.1834716796875	174.6122741699219	-1247.36279296875	758.9644775390625	192.9468078613281	-1307.416259765625	759.5326538085938	223.8079833984375	-1401.573486328125	1591.841918945312	12.87749195098877	-1243.583374023438	1625.195190429688	-105.4642715454102	-1269.980590820312	1618.229614257812	14.38110733032227	-1383.014282226562	1596.8583984375	-148.6993103027344	-1251.636352539062	973.4378662109375	47.82022476196289	-1353.1845703125	481.7897338867188	-245.948486328125	-1360.394165039062	624.52001953125	-254.8668365478516	-1443.944213867188	43.44999313354492	-214.4240264892578	-1403.13232421875	250.4793701171875	-242.6141662597656	-1233.9052734375	48.96687698364258	-142.4609527587891	-1315.179931640625	46.90877151489258	-115.3630294799805	-1314.217895507812	43.80684280395508	-219.8497772216797	-1484.296752929688	39.92392730712891	-158.2333374023438	-1347.5849609375	479.3395385742188	79.96909332275391	-1393.027954101562	57.40703201293945	42.67040634155273	-1338.002319335938	352.228759765625	63.21532440185547	-1220.21923828125	42.54303741455078	-35.35407638549805	-1296.321533203125	44.48839950561523	-55.31887435913086	-1305.562377929688	54.52609252929688	41.924560546875	-1469.755981445312	41.00094604492188	-8.057272911071777	-1274.261962890625	969.286865234375	-212.9498291015625	-1388.720581054688	975.8698120117188	-256.4209594726562	-1381.85302734375	969.9192504882812	105.3843383789062	-1309.584716796875	740.420654296875	104.6639938354492	nan	nan	nan	nan	nan	nan	nan	nan	nan	
